<!--?xml version="1.0" standalone="no"?-->
              <svg id="sw-js-blob-svg" viewBox="0 0 100 100" xmlns="http://www.w3.org/2000/svg" version="1.1">
                    <defs> 
                        <linearGradient id="sw-gradient" x1="0" x2="1" y1="1" y2="0">
                            <stop id="stop1" stop-color="rgba(74.198, 215.227, 102.961, 1)" offset="0%"></stop>
                            <stop id="stop2" stop-color="rgba(16.871, 87.727, 21.721, 1)" offset="100%"></stop>
                        </linearGradient>
                    </defs>
                <path fill="url(#sw-gradient)" d="M16.6,-26.9C22.4,-22.1,28.7,-19,33.5,-13.8C38.3,-8.5,41.7,-1,40.2,5.4C38.7,11.9,32.5,17.3,27.1,23.3C21.7,29.4,17.1,36.1,10.7,39.2C4.3,42.4,-3.9,41.9,-10.8,38.9C-17.6,35.9,-23,30.3,-27.4,24.3C-31.7,18.3,-35,11.9,-37,4.7C-39,-2.5,-39.8,-10.5,-37,-17C-34.2,-23.5,-27.8,-28.4,-21.1,-32.9C-14.3,-37.3,-7.1,-41.2,-0.9,-39.8C5.4,-38.5,10.8,-31.8,16.6,-26.9Z" width="100%" height="100%" transform="translate(50 50)" stroke-width="0" style="transition: all 0.3s ease 0s;"></path>
              </svg>